<?xml version="1.0" standalone="no"?>
<!DOCTYPE svg PUBLIC "-//W3C//DTD SVG 20010904//EN"
 "http://www.w3.org/TR/2001/REC-SVG-20010904/DTD/svg10.dtd">
<svg version="1.0" xmlns="http://www.w3.org/2000/svg"
 width="809.000000pt" height="809.000000pt" viewBox="0 0 809.000000 809.000000"
 preserveAspectRatio="xMidYMid meet">
<metadata>
Created by potrace 1.11, written by Peter Selinger 2001-2013
</metadata>
<g transform="translate(0.000000,809.000000) scale(0.100000,-0.100000)"
fill="#000000" stroke="none">
<path d="M3765 8009 c-761 -54 -1508 -335 -2118 -796 -274 -208 -561 -495
-770 -771 -882 -1164 -1052 -2718 -443 -4052 90 -197 254 -492 371 -670 429
-648 1061 -1138 1794 -1391 264 -91 675 -190 933 -223 845 -111 1740 63 2468
480 58 33 141 80 185 104 324 175 559 347 814 595 526 513 871 1149 1010 1865
41 209 53 332 58 618 l6 282 -252 0 c-138 0 -252 3 -252 8 -1 4 -2 255 -4 557
-1 303 -3 553 -4 558 0 4 -28 7 -61 7 l-60 0 0 -565 0 -565 -270 0 -270 0 0
565 0 565 -60 0 -60 0 0 -565 0 -565 -270 0 -270 0 0 565 0 565 -60 0 -60 0 0
-565 0 -565 -93 0 -93 0 -12 -142 c-40 -470 -222 -868 -546 -1194 -504 -505
-1248 -681 -1926 -455 -284 95 -523 243 -736 455 -736 736 -736 1928 0 2662
326 324 724 506 1194 546 l142 12 0 93 0 93 565 0 565 0 0 60 0 60 -565 0
-565 0 0 103 1 102 44 -49 44 -50 71 148 c38 81 70 150 70 153 0 3 -25 34 -56
69 l-56 64 506 0 506 0 0 60 0 60 -570 0 -570 0 -88 67 c-157 120 -311 212
-457 273 -44 19 -84 37 -88 41 -20 16 415 69 571 69 l72 0 0 45 0 45 565 0
566 0 -3 63 -3 62 -560 0 -560 0 -3 228 -2 227 -83 -1 c-45 -1 -136 -6 -202
-10z"/>
</g>
</svg>
